<?xml version="1.0" encoding="UTF-8"?>
<svg id="Calque_1" data-name="Calque 1" xmlns="http://www.w3.org/2000/svg" viewBox="0 0 4000 2000">
  <defs>
    <style>
      .cls-1 {
        fill: #fff;
      }

      .cls-2 {
        fill: #e50f55;
      }
    </style>
  </defs>
  <rect class="cls-1" y="0" width="1000" height="1000"/>
  <rect x="1000" width="1000" height="1000"/>
  <g>
    <path d="M199.71,768.32h-9.67c-.92,0-1.38-.46-1.38-1.38v-35.58h-11.64c-.92,0-1.38-.46-1.38-1.38v-8.81c0-.92.46-1.38,1.38-1.38h35.75c.92,0,1.38.46,1.38,1.38v8.81c0,.92-.46,1.38-1.38,1.38h-11.68v35.58c0,.92-.46,1.38-1.38,1.38Z"/>
    <path d="M224.65,766.92c-2.44-1.44-4.35-3.39-5.71-5.83-1.37-2.44-2.05-5.11-2.05-7.99s.65-5.6,1.95-8.06c1.3-2.45,3.11-4.4,5.43-5.85,2.32-1.45,4.96-2.18,7.92-2.18,3.19,0,5.96.69,8.3,2.06,2.34,1.38,4.13,3.28,5.36,5.7,1.23,2.43,1.85,5.18,1.85,8.27,0,.68-.03,1.35-.1,2.01-.07.63-.42.94-1.07.94h-20.74c.56,1.7,1.52,3.02,2.88,3.97,1.36.95,2.9,1.43,4.63,1.43,1.1,0,2.1-.16,2.99-.47.89-.31,1.76-.77,2.61-1.36.22-.17.44-.25.66-.25.27,0,.52.15.74.46l3.13,4.45c.15.22.23.43.23.64,0,.29-.14.54-.41.76-1.41,1.1-2.98,1.96-4.72,2.56-1.74.6-3.6.9-5.59.9-3.07,0-5.83-.72-8.27-2.16ZM236.69,745.77c-1.15-.9-2.56-1.35-4.23-1.35s-3.04.46-4.24,1.37-2.04,2.2-2.53,3.84h13.44c-.48-1.68-1.29-2.97-2.44-3.87Z"/>
    <path d="M260.33,768.32h-6.54c-.68,0-1.02-.34-1.02-1.02v-37.75c0-.68.34-1.02,1.02-1.02h6.54c.68,0,1.02.34,1.02,1.02v37.75c0,.68-.34,1.02-1.02,1.02Z"/>
    <path d="M274.2,766.92c-2.44-1.44-4.35-3.39-5.71-5.83-1.37-2.44-2.05-5.11-2.05-7.99s.65-5.6,1.95-8.06c1.3-2.45,3.11-4.4,5.43-5.85,2.32-1.45,4.96-2.18,7.92-2.18,3.19,0,5.96.69,8.3,2.06,2.34,1.38,4.13,3.28,5.36,5.7,1.23,2.43,1.85,5.18,1.85,8.27,0,.68-.03,1.35-.1,2.01-.07.63-.42.94-1.07.94h-20.74c.56,1.7,1.52,3.02,2.88,3.97,1.36.95,2.9,1.43,4.63,1.43,1.1,0,2.1-.16,2.99-.47.89-.31,1.76-.77,2.61-1.36.22-.17.44-.25.66-.25.27,0,.52.15.74.46l3.13,4.45c.15.22.23.43.23.64,0,.29-.14.54-.41.76-1.41,1.1-2.98,1.96-4.72,2.56-1.74.6-3.6.9-5.59.9-3.07,0-5.83-.72-8.27-2.16ZM286.24,745.77c-1.15-.9-2.56-1.35-4.23-1.35s-3.04.46-4.24,1.37-2.04,2.2-2.53,3.84h13.44c-.48-1.68-1.29-2.97-2.44-3.87Z"/>
    <path d="M308.02,766.94c-2.42-1.43-4.31-3.37-5.68-5.82-1.37-2.44-2.05-5.12-2.05-8.02s.68-5.63,2.04-8.08c1.36-2.45,3.25-4.4,5.68-5.84,2.43-1.44,5.17-2.16,8.22-2.16,2,0,3.88.3,5.64.89,1.76.59,3.33,1.43,4.72,2.52.29.24.43.49.43.76,0,.2-.08.42-.23.66l-3.23,4.61c-.22.32-.48.48-.76.48-.19,0-.41-.08-.66-.25-.87-.59-1.73-1.04-2.6-1.35s-1.86-.46-2.98-.46c-1.37,0-2.65.36-3.82,1.07-1.17.71-2.1,1.69-2.8,2.94-.7,1.25-1.04,2.65-1.04,4.21s.35,2.91,1.06,4.15c.7,1.24,1.65,2.21,2.83,2.92,1.18.7,2.45,1.06,3.81,1.06,1.1,0,2.09-.15,2.96-.45s1.73-.74,2.58-1.34c.25-.17.48-.25.66-.25.29,0,.54.16.76.48l3.23,4.61c.17.24.25.47.25.69s-.1.42-.31.61c-1.41,1.12-3,1.99-4.79,2.6-1.78.61-3.71.92-5.78.92-3.02,0-5.74-.72-8.16-2.15Z"/>
    <path d="M336.75,766.95c-2.49-1.43-4.45-3.36-5.91-5.8-1.45-2.44-2.18-5.12-2.18-8.02s.73-5.66,2.19-8.12c1.46-2.46,3.44-4.41,5.94-5.84,2.5-1.43,5.25-2.15,8.23-2.15s5.76.72,8.26,2.15c2.5,1.43,4.48,3.38,5.94,5.84,1.46,2.46,2.19,5.17,2.19,8.12s-.73,5.57-2.2,8.02-3.46,4.38-5.98,5.8c-2.52,1.42-5.28,2.14-8.28,2.14s-5.72-.71-8.21-2.14ZM348.94,759.8c1.18-.68,2.11-1.61,2.8-2.79.69-1.18,1.03-2.49,1.03-3.93s-.34-2.78-1.03-3.97c-.69-1.19-1.62-2.12-2.8-2.8-1.18-.68-2.47-1.02-3.88-1.02s-2.73.34-3.91,1.02c-1.18.68-2.11,1.61-2.8,2.8-.69,1.19-1.03,2.51-1.03,3.97s.34,2.75,1.03,3.93c.69,1.18,1.62,2.11,2.8,2.79,1.18.68,2.48,1.02,3.91,1.02s2.7-.34,3.88-1.02Z"/>
    <path d="M408.87,738.35c1.71,1.06,3.04,2.64,3.97,4.73.93,2.1,1.4,4.65,1.4,7.67v16.54c0,.68-.34,1.02-1.02,1.02h-6.62c-.68,0-1.02-.34-1.02-1.02v-16.24c0-1.9-.44-3.4-1.32-4.49s-2.15-1.64-3.79-1.64c-1.05,0-2,.27-2.84.8s-1.51,1.24-2.02,2.12c-.51.88-.81,1.84-.89,2.88v16.57c0,.68-.34,1.02-1.02,1.02h-6.62c-.68,0-1.02-.34-1.02-1.02v-16.24c0-1.9-.44-3.4-1.32-4.49s-2.15-1.64-3.79-1.64c-1.12,0-2.12.3-2.99.9-.87.6-1.56,1.4-2.05,2.38-.49.98-.74,2.03-.74,3.13v15.96c0,.68-.34,1.02-1.02,1.02h-6.62c-.68,0-1.02-.34-1.02-1.02v-28.76c0-.68.34-1.02,1.02-1.02h5.06c.29,0,.53.06.71.19s.34.33.46.6l.66,1.6c1.2-1.02,2.55-1.8,4.05-2.34s3.1-.81,4.81-.81c2,0,3.78.4,5.35,1.2,1.56.8,2.83,1.97,3.82,3.51,1.26-1.51,2.77-2.67,4.54-3.49,1.77-.81,3.71-1.22,5.82-1.22,2.32,0,4.34.53,6.06,1.59Z"/>
    <path d="M445.71,768.32h-9.67c-.92,0-1.38-.46-1.38-1.38v-45.77c0-.92.46-1.38,1.38-1.38h18.69c3.5,0,6.57.7,9.21,2.11,2.64,1.4,4.67,3.34,6.11,5.82,1.44,2.48,2.16,5.27,2.16,8.38,0,3.36-.69,6.32-2.07,8.88-1.38,2.56-3.38,4.54-5.99,5.96-2.61,1.42-5.71,2.12-9.27,2.12h-7.77v13.89c0,.92-.46,1.38-1.38,1.38ZM456.87,741.1c.9-.48,1.61-1.16,2.12-2.02.52-.86.78-1.83.78-2.88s-.26-1.91-.78-2.69c-.52-.78-1.22-1.39-2.11-1.83-.89-.44-1.88-.66-2.99-.66h-6.8v10.81h6.77c1.11,0,2.11-.24,3.01-.73Z"/>
    <path d="M501.25,737.53h4.89c.68,0,1.02.34,1.02,1.02v28.76c0,.68-.34,1.02-1.02,1.02h-5.06c-.56,0-.95-.26-1.17-.79l-.64-1.53c-2.12,1.99-4.79,2.98-7.99,2.98-2.9,0-5.57-.72-8.02-2.15-2.44-1.43-4.38-3.38-5.8-5.83s-2.14-5.14-2.14-8.06.72-5.57,2.15-8c1.43-2.43,3.37-4.37,5.82-5.79,2.44-1.43,5.11-2.14,7.99-2.14,3.24,0,5.93,1.01,8.07,3.03l.74-1.73c.22-.53.61-.79,1.17-.79ZM495.29,759.73c1.16-.65,2.08-1.56,2.75-2.72s1.01-2.47,1.01-3.93-.33-2.8-.99-3.98c-.66-1.18-1.57-2.11-2.72-2.79-1.15-.68-2.44-1.02-3.84-1.02s-2.69.33-3.83,1c-1.15.67-2.04,1.6-2.7,2.79-.65,1.19-.98,2.52-.98,4s.32,2.79.97,3.95c.65,1.15,1.53,2.06,2.66,2.71,1.13.65,2.41.98,3.83.98s2.69-.33,3.86-.98Z"/>
    <path d="M536.73,738.83c.36.22.53.49.53.81,0,.19-.05.38-.15.58l-2.93,5.5c-.2.37-.47.56-.79.56-.2,0-.4-.06-.59-.18-1.22-.68-2.39-1.02-3.51-1.02s-2.09.31-3.07.92c-.98.61-1.77,1.51-2.38,2.71s-.92,2.63-.92,4.31v14.28c0,.68-.34,1.02-1.02,1.02h-6.62c-.68,0-1.02-.34-1.02-1.02v-28.76c0-.68.34-1.02,1.02-1.02h5.06c.56,0,.95.26,1.17.79l1.25,2.98c.8-1.32,1.87-2.37,3.21-3.13,1.34-.76,2.86-1.15,4.56-1.15,2.09,0,4.15.6,6.19,1.81Z"/>
    <path d="M541.34,733.2v-5.98c0-.68.34-1.02,1.02-1.02h6.74c.68,0,1.02.34,1.02,1.02v5.98c0,.68-.34,1.02-1.02,1.02h-6.74c-.68,0-1.02-.34-1.02-1.02ZM549.03,768.32h-6.62c-.68,0-1.02-.34-1.02-1.02v-28.76c0-.68.34-1.02,1.02-1.02h6.62c.68,0,1.02.34,1.02,1.02v28.76c0,.68-.34,1.02-1.02,1.02Z"/>
    <path d="M561.18,767.88c-2.03-.81-3.92-1.99-5.69-3.55-.27-.22-.41-.47-.41-.74,0-.22.09-.45.28-.69l3.44-4.3c.24-.29.48-.43.74-.43.19,0,.42.09.69.28,1.24.93,2.46,1.66,3.68,2.16,1.21.51,2.44.76,3.68.76.85,0,1.53-.17,2.04-.5.51-.33.76-.8.76-1.41,0-.41-.15-.78-.45-1.12-.3-.34-.81-.68-1.54-1.03s-1.77-.75-3.1-1.21c-2.56-.87-4.68-2.04-6.34-3.54-1.66-1.49-2.49-3.55-2.49-6.16,0-1.66.41-3.21,1.23-4.63.82-1.42,2.08-2.57,3.77-3.45,1.69-.87,3.76-1.31,6.22-1.31,1.7,0,3.44.34,5.23,1.01,1.79.67,3.37,1.67,4.75,2.99.24.24.36.48.36.71,0,.2-.12.44-.36.71l-4.02,4.15c-.22.24-.46.36-.71.36-.22,0-.46-.1-.71-.31-.7-.56-1.46-1.02-2.3-1.39-.84-.37-1.68-.55-2.51-.55s-1.52.16-1.97.48-.67.76-.67,1.32c0,.39.17.74.5,1.06.33.31.86.63,1.59.94s1.75.68,3.05,1.11c2.8.9,4.96,2.1,6.49,3.61,1.53,1.51,2.29,3.55,2.29,6.13,0,1.68-.43,3.26-1.29,4.75-.86,1.48-2.1,2.68-3.74,3.6-1.64.92-3.58,1.38-5.82,1.38-2.41,0-4.63-.4-6.66-1.21Z"/>
    <path d="M597.74,766.94v-45.77c0-.92.46-1.38,1.38-1.38h19.59c3.34,0,6.3.7,8.88,2.09,2.58,1.39,4.59,3.34,6.03,5.84,1.44,2.5,2.16,5.36,2.16,8.58s-.63,5.73-1.9,7.93c-1.27,2.2-3.04,3.99-5.32,5.37l8.57,17.1c.14.28.21.52.21.72,0,.28-.11.5-.33.66-.22.16-.51.24-.88.24h-11.05c-.76,0-1.3-.35-1.62-1.04l-6.77-14.47c-.35.02-.84.04-1.49.04h-5.01v14.09c0,.92-.46,1.38-1.38,1.38h-9.67c-.92,0-1.38-.46-1.38-1.38ZM620.44,741.48c.85-.55,1.52-1.29,2-2.21.48-.92.73-1.9.73-2.94,0-1.82-.53-3.22-1.59-4.2-1.06-.98-2.36-1.47-3.9-1.47h-7.5v11.64h7.39c1.06,0,2.01-.28,2.87-.83Z"/>
    <path d="M648.55,766.92c-2.44-1.44-4.35-3.39-5.71-5.83-1.37-2.44-2.05-5.11-2.05-7.99s.65-5.6,1.95-8.06c1.3-2.45,3.11-4.4,5.43-5.85,2.32-1.45,4.96-2.18,7.92-2.18,3.19,0,5.96.69,8.3,2.06,2.34,1.38,4.13,3.28,5.36,5.7,1.23,2.43,1.85,5.18,1.85,8.27,0,.68-.03,1.35-.1,2.01-.07.63-.42.94-1.07.94h-20.74c.56,1.7,1.52,3.02,2.88,3.97,1.36.95,2.9,1.43,4.63,1.43,1.1,0,2.1-.16,2.99-.47.89-.31,1.76-.77,2.61-1.36.22-.17.44-.25.66-.25.27,0,.52.15.74.46l3.13,4.45c.15.22.23.43.23.64,0,.29-.14.54-.41.76-1.41,1.1-2.98,1.96-4.72,2.56-1.74.6-3.6.9-5.59.9-3.07,0-5.83-.72-8.27-2.16ZM660.59,745.77c-1.15-.9-2.56-1.35-4.23-1.35s-3.04.46-4.24,1.37-2.04,2.2-2.53,3.84h13.44c-.48-1.68-1.29-2.97-2.44-3.87Z"/>
    <path d="M682.37,766.94c-2.42-1.43-4.31-3.37-5.68-5.82-1.37-2.44-2.05-5.12-2.05-8.02s.68-5.63,2.04-8.08c1.36-2.45,3.25-4.4,5.68-5.84,2.43-1.44,5.17-2.16,8.22-2.16,2,0,3.88.3,5.64.89,1.76.59,3.33,1.43,4.72,2.52.29.24.43.49.43.76,0,.2-.08.42-.23.66l-3.23,4.61c-.22.32-.48.48-.76.48-.19,0-.41-.08-.66-.25-.87-.59-1.73-1.04-2.6-1.35s-1.86-.46-2.98-.46c-1.37,0-2.65.36-3.82,1.07-1.17.71-2.1,1.69-2.8,2.94-.7,1.25-1.04,2.65-1.04,4.21s.35,2.91,1.06,4.15c.7,1.24,1.65,2.21,2.83,2.92,1.18.7,2.45,1.06,3.81,1.06,1.1,0,2.09-.15,2.96-.45s1.73-.74,2.58-1.34c.25-.17.48-.25.66-.25.29,0,.54.16.76.48l3.23,4.61c.17.24.25.47.25.69s-.1.42-.31.61c-1.41,1.12-3,1.99-4.79,2.6-1.78.61-3.71.92-5.78.92-3.02,0-5.74-.72-8.16-2.15Z"/>
    <path d="M711.1,766.95c-2.49-1.43-4.45-3.36-5.91-5.8-1.45-2.44-2.18-5.12-2.18-8.02s.73-5.66,2.19-8.12c1.46-2.46,3.44-4.41,5.94-5.84,2.5-1.43,5.25-2.15,8.23-2.15s5.76.72,8.26,2.15c2.5,1.43,4.48,3.38,5.94,5.84,1.46,2.46,2.19,5.17,2.19,8.12s-.73,5.57-2.2,8.02-3.46,4.38-5.98,5.8c-2.52,1.42-5.28,2.14-8.28,2.14s-5.72-.71-8.21-2.14ZM723.29,759.8c1.18-.68,2.11-1.61,2.8-2.79.69-1.18,1.03-2.49,1.03-3.93s-.34-2.78-1.03-3.97c-.69-1.19-1.62-2.12-2.8-2.8-1.18-.68-2.47-1.02-3.88-1.02s-2.73.34-3.91,1.02c-1.18.68-2.11,1.61-2.8,2.8-.69,1.19-1.03,2.51-1.03,3.97s.34,2.75,1.03,3.93c.69,1.18,1.62,2.11,2.8,2.79,1.18.68,2.48,1.02,3.91,1.02s2.7-.34,3.88-1.02Z"/>
    <path d="M763.32,738.83c.36.22.53.49.53.81,0,.19-.05.38-.15.58l-2.93,5.5c-.2.37-.47.56-.79.56-.2,0-.4-.06-.59-.18-1.22-.68-2.39-1.02-3.51-1.02s-2.09.31-3.07.92c-.98.61-1.77,1.51-2.38,2.71s-.92,2.63-.92,4.31v14.28c0,.68-.34,1.02-1.02,1.02h-6.62c-.68,0-1.02-.34-1.02-1.02v-28.76c0-.68.34-1.02,1.02-1.02h5.06c.56,0,.95.26,1.17.79l1.25,2.98c.8-1.32,1.87-2.37,3.21-3.13,1.34-.76,2.86-1.15,4.56-1.15,2.09,0,4.15.6,6.19,1.81Z"/>
    <path d="M787.88,728.49h6.62c.68,0,1.02.34,1.02,1.02v37.8c0,.68-.34,1.02-1.02,1.02h-5.06c-.56,0-.95-.26-1.17-.79l-.64-1.53c-2.12,1.99-4.79,2.98-7.99,2.98-2.9,0-5.57-.72-8.02-2.15-2.44-1.43-4.38-3.38-5.8-5.83s-2.14-5.14-2.14-8.06.72-5.57,2.15-8c1.43-2.43,3.37-4.37,5.82-5.79,2.44-1.43,5.11-2.14,7.99-2.14s5.24.77,7.23,2.32v-9.82c0-.68.34-1.02,1.02-1.02ZM783.64,759.73c1.16-.65,2.08-1.56,2.75-2.72s1.01-2.47,1.01-3.93-.33-2.8-.99-3.98c-.66-1.18-1.57-2.11-2.72-2.79-1.15-.68-2.44-1.02-3.84-1.02s-2.69.33-3.83,1c-1.15.67-2.04,1.6-2.7,2.79-.65,1.19-.98,2.52-.98,4s.32,2.79.97,3.95c.65,1.15,1.53,2.06,2.66,2.71,1.13.65,2.41.98,3.83.98s2.69-.33,3.86-.98Z"/>
    <path d="M806.57,767.88c-2.03-.81-3.92-1.99-5.69-3.55-.27-.22-.41-.47-.41-.74,0-.22.09-.45.28-.69l3.44-4.3c.24-.29.48-.43.74-.43.19,0,.42.09.69.28,1.24.93,2.46,1.66,3.68,2.16,1.21.51,2.44.76,3.68.76.85,0,1.53-.17,2.04-.5.51-.33.76-.8.76-1.41,0-.41-.15-.78-.45-1.12-.3-.34-.81-.68-1.54-1.03s-1.77-.75-3.1-1.21c-2.56-.87-4.68-2.04-6.34-3.54-1.66-1.49-2.49-3.55-2.49-6.16,0-1.66.41-3.21,1.23-4.63.82-1.42,2.08-2.57,3.77-3.45,1.69-.87,3.76-1.31,6.22-1.31,1.7,0,3.44.34,5.23,1.01,1.79.67,3.37,1.67,4.75,2.99.24.24.36.48.36.71,0,.2-.12.44-.36.71l-4.02,4.15c-.22.24-.46.36-.71.36-.22,0-.46-.1-.71-.31-.7-.56-1.46-1.02-2.3-1.39-.84-.37-1.68-.55-2.51-.55s-1.52.16-1.97.48-.67.76-.67,1.32c0,.39.17.74.5,1.06.33.31.86.63,1.59.94s1.75.68,3.05,1.11c2.8.9,4.96,2.1,6.49,3.61,1.53,1.51,2.29,3.55,2.29,6.13,0,1.68-.43,3.26-1.29,4.75-.86,1.48-2.1,2.68-3.74,3.6-1.64.92-3.58,1.38-5.82,1.38-2.41,0-4.63-.4-6.66-1.21Z"/>
  </g>
  <path d="M401.58,344.82v302.53h-71.17v-302.53h-108.2v-66.44h179.34v55.94"/>
  <path class="cls-2" d="M496.27,647.34h-71.17v-368.97h219.03c25.91,0,48.58,5.17,68.01,15.49,19.43,10.33,34.44,24.69,45.04,43.07,10.59,18.38,15.89,39.3,15.89,62.76,0,24.86-5.12,46.74-15.36,65.65-10.25,18.91-25.04,33.53-44.38,43.86-19.35,10.33-42.24,15.49-68.67,15.49h-148.38v122.64ZM671.7,452.36c9.45-4.99,16.8-11.99,22.06-21.01,5.25-9.02,7.88-19.39,7.88-31.12s-2.63-21.4-7.88-30.07c-5.25-8.67-12.61-15.36-22.06-20.09-9.46-4.73-20.22-7.09-32.3-7.09h-143.13v116.86h142.87c12.25,0,23.11-2.5,32.57-7.48Z"/>
  <path d="M590.28,597.17v50.17h-71.17v-99.38c5.45-.64,71.17,0,71.17,0v49.21Z"/>
  <path d="M777.78,647.34h-79.07l-51.64-99.66c27.12,0,57.63-7.98,72.91-16,0,0,41.19,81.61,41.19,81.61l16.62,34.05Z"/>
  <g>
    <path class="cls-1" d="M1199.71,768.32h-9.67c-.92,0-1.38-.46-1.38-1.38v-35.58h-11.64c-.92,0-1.38-.46-1.38-1.38v-8.81c0-.92.46-1.38,1.38-1.38h35.75c.92,0,1.38.46,1.38,1.38v8.81c0,.92-.46,1.38-1.38,1.38h-11.67v35.58c0,.92-.46,1.38-1.38,1.38Z"/>
    <path class="cls-1" d="M1224.65,766.92c-2.44-1.44-4.35-3.39-5.71-5.83-1.37-2.44-2.05-5.11-2.05-7.99s.65-5.6,1.95-8.06c1.3-2.45,3.11-4.4,5.43-5.85,2.32-1.45,4.96-2.18,7.92-2.18,3.19,0,5.96.69,8.3,2.06,2.34,1.38,4.13,3.28,5.36,5.7,1.23,2.43,1.84,5.18,1.84,8.27,0,.68-.03,1.35-.1,2.01-.07.63-.42.94-1.07.94h-20.74c.56,1.7,1.52,3.02,2.88,3.97,1.36.95,2.9,1.43,4.63,1.43,1.1,0,2.1-.16,2.99-.47.89-.31,1.76-.77,2.61-1.36.22-.17.44-.25.66-.25.27,0,.52.15.74.46l3.13,4.45c.15.22.23.43.23.64,0,.29-.14.54-.41.76-1.41,1.1-2.98,1.96-4.72,2.56-1.74.6-3.6.9-5.59.9-3.07,0-5.83-.72-8.27-2.16ZM1236.69,745.77c-1.15-.9-2.56-1.35-4.23-1.35s-3.04.46-4.24,1.37-2.04,2.2-2.53,3.84h13.44c-.48-1.68-1.29-2.97-2.44-3.87Z"/>
    <path class="cls-1" d="M1260.33,768.32h-6.54c-.68,0-1.02-.34-1.02-1.02v-37.75c0-.68.34-1.02,1.02-1.02h6.54c.68,0,1.02.34,1.02,1.02v37.75c0,.68-.34,1.02-1.02,1.02Z"/>
    <path class="cls-1" d="M1274.21,766.92c-2.44-1.44-4.35-3.39-5.71-5.83-1.37-2.44-2.05-5.11-2.05-7.99s.65-5.6,1.95-8.06c1.3-2.45,3.11-4.4,5.43-5.85,2.32-1.45,4.96-2.18,7.92-2.18,3.19,0,5.96.69,8.3,2.06,2.34,1.38,4.13,3.28,5.36,5.7,1.23,2.43,1.84,5.18,1.84,8.27,0,.68-.03,1.35-.1,2.01-.07.63-.42.94-1.07.94h-20.74c.56,1.7,1.52,3.02,2.88,3.97,1.36.95,2.9,1.43,4.63,1.43,1.1,0,2.1-.16,2.99-.47.89-.31,1.76-.77,2.61-1.36.22-.17.44-.25.66-.25.27,0,.52.15.74.46l3.13,4.45c.15.22.23.43.23.64,0,.29-.14.54-.41.76-1.41,1.1-2.98,1.96-4.72,2.56-1.74.6-3.6.9-5.59.9-3.07,0-5.83-.72-8.27-2.16ZM1286.24,745.77c-1.15-.9-2.56-1.35-4.23-1.35s-3.04.46-4.24,1.37-2.04,2.2-2.53,3.84h13.44c-.48-1.68-1.29-2.97-2.44-3.87Z"/>
    <path class="cls-1" d="M1308.02,766.94c-2.42-1.43-4.31-3.37-5.68-5.82-1.37-2.44-2.05-5.12-2.05-8.02s.68-5.63,2.04-8.08c1.36-2.45,3.25-4.4,5.68-5.84s5.17-2.16,8.22-2.16c2,0,3.88.3,5.64.89,1.76.59,3.33,1.43,4.72,2.52.29.24.43.49.43.76,0,.2-.08.42-.23.66l-3.23,4.61c-.22.32-.48.48-.76.48-.19,0-.41-.08-.66-.25-.87-.59-1.73-1.04-2.6-1.35-.87-.31-1.86-.46-2.98-.46-1.37,0-2.65.36-3.82,1.07-1.17.71-2.1,1.69-2.8,2.94-.7,1.25-1.04,2.65-1.04,4.21s.35,2.91,1.06,4.15c.7,1.24,1.65,2.21,2.83,2.92,1.18.7,2.45,1.06,3.8,1.06,1.1,0,2.09-.15,2.97-.45.87-.3,1.73-.74,2.58-1.34.25-.17.47-.25.66-.25.29,0,.54.16.76.48l3.23,4.61c.17.24.25.47.25.69s-.1.42-.31.61c-1.41,1.12-3,1.99-4.78,2.6-1.78.61-3.71.92-5.78.92-3.02,0-5.74-.72-8.16-2.15Z"/>
    <path class="cls-1" d="M1336.75,766.95c-2.49-1.43-4.45-3.36-5.91-5.8-1.45-2.44-2.18-5.12-2.18-8.02s.73-5.66,2.19-8.12c1.46-2.46,3.44-4.41,5.94-5.84,2.5-1.43,5.25-2.15,8.23-2.15s5.76.72,8.26,2.15c2.5,1.43,4.48,3.38,5.94,5.84,1.46,2.46,2.19,5.17,2.19,8.12s-.73,5.57-2.2,8.02c-1.47,2.44-3.46,4.38-5.98,5.8-2.52,1.42-5.28,2.14-8.29,2.14s-5.72-.71-8.21-2.14ZM1348.95,759.8c1.18-.68,2.11-1.61,2.8-2.79s1.03-2.49,1.03-3.93-.34-2.78-1.03-3.97c-.69-1.19-1.62-2.12-2.8-2.8-1.18-.68-2.47-1.02-3.88-1.02s-2.73.34-3.91,1.02c-1.18.68-2.11,1.61-2.8,2.8-.69,1.19-1.03,2.51-1.03,3.97s.34,2.75,1.03,3.93,1.62,2.11,2.8,2.79c1.18.68,2.48,1.02,3.91,1.02s2.7-.34,3.88-1.02Z"/>
    <path class="cls-1" d="M1408.87,738.35c1.71,1.06,3.04,2.64,3.97,4.73.93,2.1,1.4,4.65,1.4,7.67v16.54c0,.68-.34,1.02-1.02,1.02h-6.62c-.68,0-1.02-.34-1.02-1.02v-16.24c0-1.9-.44-3.4-1.32-4.49-.88-1.09-2.15-1.64-3.79-1.64-1.05,0-2,.27-2.84.8s-1.51,1.24-2.02,2.12c-.51.88-.81,1.84-.89,2.88v16.57c0,.68-.34,1.02-1.02,1.02h-6.62c-.68,0-1.02-.34-1.02-1.02v-16.24c0-1.9-.44-3.4-1.32-4.49-.88-1.09-2.15-1.64-3.79-1.64-1.12,0-2.12.3-2.99.9-.87.6-1.56,1.4-2.05,2.38-.49.98-.74,2.03-.74,3.13v15.96c0,.68-.34,1.02-1.02,1.02h-6.62c-.68,0-1.02-.34-1.02-1.02v-28.76c0-.68.34-1.02,1.02-1.02h5.07c.29,0,.53.06.71.19.19.13.34.33.46.6l.66,1.6c1.2-1.02,2.55-1.8,4.05-2.34,1.49-.54,3.1-.81,4.81-.81,2,0,3.78.4,5.34,1.2,1.56.8,2.83,1.97,3.82,3.51,1.26-1.51,2.77-2.67,4.54-3.49,1.77-.81,3.71-1.22,5.82-1.22,2.32,0,4.34.53,6.06,1.59Z"/>
    <path class="cls-1" d="M1445.71,768.32h-9.67c-.92,0-1.38-.46-1.38-1.38v-45.77c0-.92.46-1.38,1.38-1.38h18.69c3.5,0,6.57.7,9.21,2.11s4.67,3.34,6.11,5.82,2.16,5.27,2.16,8.38c0,3.36-.69,6.32-2.07,8.88-1.38,2.56-3.38,4.54-5.99,5.96-2.61,1.42-5.71,2.12-9.28,2.12h-7.77v13.89c0,.92-.46,1.38-1.38,1.38ZM1456.87,741.1c.9-.48,1.61-1.16,2.12-2.02.52-.86.78-1.83.78-2.88s-.26-1.91-.78-2.69c-.52-.78-1.22-1.39-2.11-1.83-.89-.44-1.88-.66-2.99-.66h-6.8v10.81h6.77c1.1,0,2.11-.24,3-.73Z"/>
    <path class="cls-1" d="M1501.25,737.53h4.89c.68,0,1.02.34,1.02,1.02v28.76c0,.68-.34,1.02-1.02,1.02h-5.06c-.56,0-.95-.26-1.17-.79l-.64-1.53c-2.12,1.99-4.79,2.98-7.99,2.98-2.9,0-5.57-.72-8.02-2.15-2.44-1.43-4.38-3.38-5.8-5.83-1.42-2.45-2.14-5.14-2.14-8.06s.72-5.57,2.15-8,3.37-4.37,5.82-5.79c2.44-1.43,5.11-2.14,7.99-2.14,3.24,0,5.93,1.01,8.07,3.03l.74-1.73c.22-.53.61-.79,1.17-.79ZM1495.29,759.73c1.16-.65,2.08-1.56,2.75-2.72s1.01-2.47,1.01-3.93-.33-2.8-.99-3.98c-.66-1.18-1.57-2.11-2.72-2.79-1.15-.68-2.43-1.02-3.84-1.02s-2.69.33-3.83,1c-1.14.67-2.04,1.6-2.7,2.79-.65,1.19-.98,2.52-.98,4s.32,2.79.97,3.95c.64,1.15,1.53,2.06,2.66,2.71,1.13.65,2.41.98,3.83.98s2.69-.33,3.86-.98Z"/>
    <path class="cls-1" d="M1536.74,738.83c.36.22.53.49.53.81,0,.19-.05.38-.15.58l-2.93,5.5c-.2.37-.47.56-.79.56-.2,0-.4-.06-.58-.18-1.22-.68-2.39-1.02-3.51-1.02s-2.09.31-3.07.92c-.98.61-1.77,1.51-2.38,2.71-.61,1.2-.92,2.63-.92,4.31v14.28c0,.68-.34,1.02-1.02,1.02h-6.62c-.68,0-1.02-.34-1.02-1.02v-28.76c0-.68.34-1.02,1.02-1.02h5.07c.56,0,.95.26,1.17.79l1.25,2.98c.8-1.32,1.87-2.37,3.21-3.13,1.34-.76,2.86-1.15,4.56-1.15,2.09,0,4.15.6,6.19,1.81Z"/>
    <path class="cls-1" d="M1541.34,733.2v-5.98c0-.68.34-1.02,1.02-1.02h6.75c.68,0,1.02.34,1.02,1.02v5.98c0,.68-.34,1.02-1.02,1.02h-6.75c-.68,0-1.02-.34-1.02-1.02ZM1549.03,768.32h-6.62c-.68,0-1.02-.34-1.02-1.02v-28.76c0-.68.34-1.02,1.02-1.02h6.62c.68,0,1.02.34,1.02,1.02v28.76c0,.68-.34,1.02-1.02,1.02Z"/>
    <path class="cls-1" d="M1561.18,767.88c-2.03-.81-3.92-1.99-5.69-3.55-.27-.22-.41-.47-.41-.74,0-.22.09-.45.28-.69l3.44-4.3c.24-.29.48-.43.74-.43.19,0,.42.09.69.28,1.24.93,2.46,1.66,3.68,2.16s2.44.76,3.68.76c.85,0,1.53-.17,2.04-.5.51-.33.76-.8.76-1.41,0-.41-.15-.78-.45-1.12-.3-.34-.81-.68-1.54-1.03-.73-.35-1.77-.75-3.11-1.21-2.56-.87-4.67-2.04-6.34-3.54s-2.49-3.55-2.49-6.16c0-1.66.41-3.21,1.23-4.63.82-1.42,2.08-2.57,3.77-3.45,1.69-.87,3.76-1.31,6.22-1.31,1.7,0,3.44.34,5.23,1.01,1.79.67,3.37,1.67,4.75,2.99.24.24.36.48.36.71,0,.2-.12.44-.36.71l-4.02,4.15c-.22.24-.46.36-.71.36-.22,0-.46-.1-.71-.31-.7-.56-1.46-1.02-2.3-1.39s-1.68-.55-2.51-.55-1.52.16-1.97.48-.67.76-.67,1.32c0,.39.17.74.5,1.06.33.31.86.63,1.59.94.73.31,1.75.68,3.05,1.11,2.8.9,4.96,2.1,6.49,3.61,1.53,1.51,2.29,3.55,2.29,6.13,0,1.68-.43,3.26-1.29,4.75-.86,1.48-2.1,2.68-3.74,3.6-1.64.92-3.58,1.38-5.82,1.38-2.41,0-4.63-.4-6.66-1.21Z"/>
    <path class="cls-1" d="M1597.74,766.94v-45.77c0-.92.46-1.38,1.38-1.38h19.59c3.34,0,6.3.7,8.88,2.09,2.58,1.39,4.59,3.34,6.03,5.84s2.16,5.36,2.16,8.58-.63,5.73-1.9,7.93c-1.27,2.2-3.04,3.99-5.32,5.37l8.57,17.1c.14.28.21.52.21.72,0,.28-.11.5-.33.66-.22.16-.51.24-.88.24h-11.05c-.76,0-1.3-.35-1.62-1.04l-6.77-14.47c-.35.02-.84.04-1.49.04h-5.01v14.09c0,.92-.46,1.38-1.38,1.38h-9.67c-.92,0-1.38-.46-1.38-1.38ZM1620.44,741.48c.85-.55,1.52-1.29,2-2.21.48-.92.72-1.9.72-2.94,0-1.82-.53-3.22-1.59-4.2-1.06-.98-2.36-1.47-3.9-1.47h-7.5v11.64h7.39c1.06,0,2.01-.28,2.87-.83Z"/>
    <path class="cls-1" d="M1648.55,766.92c-2.44-1.44-4.35-3.39-5.71-5.83-1.37-2.44-2.05-5.11-2.05-7.99s.65-5.6,1.95-8.06c1.3-2.45,3.11-4.4,5.43-5.85,2.32-1.45,4.96-2.18,7.92-2.18,3.19,0,5.96.69,8.3,2.06,2.34,1.38,4.13,3.28,5.36,5.7,1.23,2.43,1.84,5.18,1.84,8.27,0,.68-.03,1.35-.1,2.01-.07.63-.42.94-1.07.94h-20.74c.56,1.7,1.52,3.02,2.88,3.97,1.36.95,2.9,1.43,4.63,1.43,1.1,0,2.1-.16,2.99-.47.89-.31,1.76-.77,2.61-1.36.22-.17.44-.25.66-.25.27,0,.52.15.74.46l3.13,4.45c.15.22.23.43.23.64,0,.29-.14.54-.41.76-1.41,1.1-2.98,1.96-4.72,2.56-1.74.6-3.6.9-5.59.9-3.07,0-5.83-.72-8.27-2.16ZM1660.59,745.77c-1.15-.9-2.56-1.35-4.23-1.35s-3.04.46-4.24,1.37-2.04,2.2-2.53,3.84h13.44c-.48-1.68-1.29-2.97-2.44-3.87Z"/>
    <path class="cls-1" d="M1682.37,766.94c-2.42-1.43-4.31-3.37-5.68-5.82-1.37-2.44-2.05-5.12-2.05-8.02s.68-5.63,2.04-8.08c1.36-2.45,3.25-4.4,5.68-5.84s5.17-2.16,8.22-2.16c2,0,3.88.3,5.64.89,1.76.59,3.33,1.43,4.72,2.52.29.24.43.49.43.76,0,.2-.08.42-.23.66l-3.23,4.61c-.22.32-.48.48-.76.48-.19,0-.41-.08-.66-.25-.87-.59-1.73-1.04-2.6-1.35-.87-.31-1.86-.46-2.98-.46-1.37,0-2.65.36-3.82,1.07-1.17.71-2.1,1.69-2.8,2.94-.7,1.25-1.04,2.65-1.04,4.21s.35,2.91,1.06,4.15c.7,1.24,1.65,2.21,2.83,2.92,1.18.7,2.45,1.06,3.8,1.06,1.1,0,2.09-.15,2.97-.45.87-.3,1.73-.74,2.58-1.34.25-.17.47-.25.66-.25.29,0,.54.16.76.48l3.23,4.61c.17.24.25.47.25.69s-.1.42-.31.61c-1.41,1.12-3,1.99-4.78,2.6-1.78.61-3.71.92-5.78.92-3.02,0-5.74-.72-8.16-2.15Z"/>
    <path class="cls-1" d="M1711.1,766.95c-2.49-1.43-4.45-3.36-5.91-5.8-1.45-2.44-2.18-5.12-2.18-8.02s.73-5.66,2.19-8.12c1.46-2.46,3.44-4.41,5.94-5.84,2.5-1.43,5.25-2.15,8.23-2.15s5.76.72,8.26,2.15c2.5,1.43,4.48,3.38,5.94,5.84,1.46,2.46,2.19,5.17,2.19,8.12s-.73,5.57-2.2,8.02c-1.47,2.44-3.46,4.38-5.98,5.8-2.52,1.42-5.28,2.14-8.29,2.14s-5.72-.71-8.21-2.14ZM1723.29,759.8c1.18-.68,2.11-1.61,2.8-2.79s1.03-2.49,1.03-3.93-.34-2.78-1.03-3.97c-.69-1.19-1.62-2.12-2.8-2.8-1.18-.68-2.47-1.02-3.88-1.02s-2.73.34-3.91,1.02c-1.18.68-2.11,1.61-2.8,2.8-.69,1.19-1.03,2.51-1.03,3.97s.34,2.75,1.03,3.93,1.62,2.11,2.8,2.79c1.18.68,2.48,1.02,3.91,1.02s2.7-.34,3.88-1.02Z"/>
    <path class="cls-1" d="M1763.32,738.83c.36.22.53.49.53.81,0,.19-.05.38-.15.58l-2.93,5.5c-.2.37-.47.56-.79.56-.2,0-.4-.06-.58-.18-1.22-.68-2.39-1.02-3.51-1.02s-2.09.31-3.07.92c-.98.61-1.77,1.51-2.38,2.71-.61,1.2-.92,2.63-.92,4.31v14.28c0,.68-.34,1.02-1.02,1.02h-6.62c-.68,0-1.02-.34-1.02-1.02v-28.76c0-.68.34-1.02,1.02-1.02h5.07c.56,0,.95.26,1.17.79l1.25,2.98c.8-1.32,1.87-2.37,3.21-3.13,1.34-.76,2.86-1.15,4.56-1.15,2.09,0,4.15.6,6.19,1.81Z"/>
    <path class="cls-1" d="M1787.88,728.49h6.62c.68,0,1.02.34,1.02,1.02v37.8c0,.68-.34,1.02-1.02,1.02h-5.06c-.56,0-.95-.26-1.17-.79l-.64-1.53c-2.12,1.99-4.79,2.98-7.99,2.98-2.9,0-5.57-.72-8.02-2.15-2.44-1.43-4.38-3.38-5.8-5.83-1.42-2.45-2.14-5.14-2.14-8.06s.72-5.57,2.15-8,3.37-4.37,5.82-5.79c2.44-1.43,5.11-2.14,7.99-2.14s5.24.77,7.23,2.32v-9.82c0-.68.34-1.02,1.02-1.02ZM1783.64,759.73c1.16-.65,2.08-1.56,2.75-2.72s1.01-2.47,1.01-3.93-.33-2.8-.99-3.98c-.66-1.18-1.57-2.11-2.72-2.79-1.15-.68-2.43-1.02-3.84-1.02s-2.69.33-3.83,1c-1.14.67-2.04,1.6-2.7,2.79-.65,1.19-.98,2.52-.98,4s.32,2.79.97,3.95c.64,1.15,1.53,2.06,2.66,2.71,1.13.65,2.41.98,3.83.98s2.69-.33,3.86-.98Z"/>
    <path class="cls-1" d="M1806.57,767.88c-2.03-.81-3.92-1.99-5.69-3.55-.27-.22-.41-.47-.41-.74,0-.22.09-.45.28-.69l3.44-4.3c.24-.29.48-.43.74-.43.19,0,.42.09.69.28,1.24.93,2.46,1.66,3.68,2.16s2.44.76,3.68.76c.85,0,1.53-.17,2.04-.5.51-.33.76-.8.76-1.41,0-.41-.15-.78-.45-1.12-.3-.34-.81-.68-1.54-1.03-.73-.35-1.77-.75-3.11-1.21-2.56-.87-4.67-2.04-6.34-3.54s-2.49-3.55-2.49-6.16c0-1.66.41-3.21,1.23-4.63.82-1.42,2.08-2.57,3.77-3.45,1.69-.87,3.76-1.31,6.22-1.31,1.7,0,3.44.34,5.23,1.01,1.79.67,3.37,1.67,4.75,2.99.24.24.36.48.36.71,0,.2-.12.44-.36.71l-4.02,4.15c-.22.24-.46.36-.71.36-.22,0-.46-.1-.71-.31-.7-.56-1.46-1.02-2.3-1.39s-1.68-.55-2.51-.55-1.52.16-1.97.48-.67.76-.67,1.32c0,.39.17.74.5,1.06.33.31.86.63,1.59.94.73.31,1.75.68,3.05,1.11,2.8.9,4.96,2.1,6.49,3.61,1.53,1.51,2.29,3.55,2.29,6.13,0,1.68-.43,3.26-1.29,4.75-.86,1.48-2.1,2.68-3.74,3.6-1.64.92-3.58,1.38-5.82,1.38-2.41,0-4.63-.4-6.66-1.21Z"/>
  </g>
  <path class="cls-1" d="M1401.58,344.82v302.53h-71.17v-302.53h-108.2v-66.44h179.34v55.94"/>
  <path class="cls-2" d="M1496.27,647.34h-71.17v-368.97h219.03c25.91,0,48.58,5.17,68.01,15.49,19.43,10.33,34.44,24.69,45.04,43.07,10.59,18.38,15.89,39.3,15.89,62.76,0,24.86-5.12,46.74-15.36,65.65-10.25,18.91-25.04,33.53-44.38,43.86-19.35,10.33-42.24,15.49-68.67,15.49h-148.38v122.64ZM1671.7,452.36c9.45-4.99,16.8-11.99,22.06-21.01,5.25-9.02,7.88-19.39,7.88-31.12s-2.63-21.4-7.88-30.07c-5.25-8.67-12.61-15.36-22.06-20.09-9.46-4.73-20.22-7.09-32.3-7.09h-143.13v116.86h142.87c12.25,0,23.11-2.5,32.57-7.48Z"/>
  <path class="cls-1" d="M1590.28,597.17v50.17h-71.17v-99.38c5.45-.64,71.17,0,71.17,0v49.21Z"/>
  <path class="cls-1" d="M1777.78,647.34h-79.07l-51.64-99.66c27.12,0,57.63-7.98,72.91-16,0,0,41.19,81.61,41.19,81.61l16.62,34.05Z"/>
  <rect class="cls-1" x="0" y="1000" width="1000" height="1000" rx="500" ry="500"/>
  <path d="M1500,1000h0c275.96,0,500,224.04,500,500h0c0,275.96-224.04,500-500,500h0c-275.96,0-500-224.04-500-500h0c0-275.96,224.04-500,500-500Z"/>
  <g>
    <path d="M199.71,1768.32h-9.67c-.92,0-1.38-.46-1.38-1.38v-35.58h-11.64c-.92,0-1.38-.46-1.38-1.38v-8.81c0-.92.46-1.38,1.38-1.38h35.75c.92,0,1.38.46,1.38,1.38v8.81c0,.92-.46,1.38-1.38,1.38h-11.68v35.58c0,.92-.46,1.38-1.38,1.38Z"/>
    <path d="M224.65,1766.92c-2.44-1.44-4.35-3.39-5.71-5.83-1.37-2.44-2.05-5.11-2.05-7.99s.65-5.6,1.95-8.06c1.3-2.45,3.11-4.4,5.43-5.85,2.32-1.45,4.96-2.18,7.92-2.18,3.19,0,5.96.69,8.3,2.06,2.34,1.38,4.13,3.28,5.36,5.7,1.23,2.43,1.85,5.18,1.85,8.27,0,.68-.03,1.35-.1,2.01-.07.63-.42.94-1.07.94h-20.74c.56,1.7,1.52,3.02,2.88,3.97,1.36.95,2.9,1.43,4.63,1.43,1.1,0,2.1-.16,2.99-.47.89-.31,1.76-.77,2.61-1.36.22-.17.44-.25.66-.25.27,0,.52.15.74.46l3.13,4.45c.15.22.23.43.23.64,0,.29-.14.54-.41.76-1.41,1.1-2.98,1.96-4.72,2.56-1.74.6-3.6.9-5.59.9-3.07,0-5.83-.72-8.27-2.16ZM236.69,1745.77c-1.15-.9-2.56-1.35-4.23-1.35s-3.04.46-4.24,1.37-2.04,2.2-2.53,3.84h13.44c-.48-1.68-1.29-2.97-2.44-3.87Z"/>
    <path d="M260.33,1768.32h-6.54c-.68,0-1.02-.34-1.02-1.02v-37.75c0-.68.34-1.02,1.02-1.02h6.54c.68,0,1.02.34,1.02,1.02v37.75c0,.68-.34,1.02-1.02,1.02Z"/>
    <path d="M274.2,1766.92c-2.44-1.44-4.35-3.39-5.71-5.83-1.37-2.44-2.05-5.11-2.05-7.99s.65-5.6,1.95-8.06c1.3-2.45,3.11-4.4,5.43-5.85,2.32-1.45,4.96-2.18,7.92-2.18,3.19,0,5.96.69,8.3,2.06,2.34,1.38,4.13,3.28,5.36,5.7,1.23,2.43,1.85,5.18,1.85,8.27,0,.68-.03,1.35-.1,2.01-.07.63-.42.94-1.07.94h-20.74c.56,1.7,1.52,3.02,2.88,3.97,1.36.95,2.9,1.43,4.63,1.43,1.1,0,2.1-.16,2.99-.47.89-.31,1.76-.77,2.61-1.36.22-.17.44-.25.66-.25.27,0,.52.15.74.46l3.13,4.45c.15.22.23.43.23.64,0,.29-.14.54-.41.76-1.41,1.1-2.98,1.96-4.72,2.56-1.74.6-3.6.9-5.59.9-3.07,0-5.83-.72-8.27-2.16ZM286.24,1745.77c-1.15-.9-2.56-1.35-4.23-1.35s-3.04.46-4.24,1.37-2.04,2.2-2.53,3.84h13.44c-.48-1.68-1.29-2.97-2.44-3.87Z"/>
    <path d="M308.02,1766.94c-2.42-1.43-4.31-3.37-5.68-5.82-1.37-2.44-2.05-5.12-2.05-8.02s.68-5.63,2.04-8.08c1.36-2.45,3.25-4.4,5.68-5.84,2.43-1.44,5.17-2.16,8.22-2.16,2,0,3.88.3,5.64.89,1.76.59,3.33,1.43,4.72,2.52.29.24.43.49.43.76,0,.2-.08.42-.23.66l-3.23,4.61c-.22.32-.48.48-.76.48-.19,0-.41-.08-.66-.25-.87-.59-1.73-1.04-2.6-1.35s-1.86-.46-2.98-.46c-1.37,0-2.65.36-3.82,1.07-1.17.71-2.1,1.69-2.8,2.94-.7,1.25-1.04,2.65-1.04,4.21s.35,2.91,1.06,4.15c.7,1.24,1.65,2.21,2.83,2.92,1.18.7,2.45,1.06,3.81,1.06,1.1,0,2.09-.15,2.96-.45s1.73-.74,2.58-1.34c.25-.17.48-.25.66-.25.29,0,.54.16.76.48l3.23,4.61c.17.24.25.47.25.69s-.1.42-.31.61c-1.41,1.12-3,1.99-4.79,2.6-1.78.61-3.71.92-5.78.92-3.02,0-5.74-.72-8.16-2.15Z"/>
    <path d="M336.75,1766.95c-2.49-1.43-4.45-3.36-5.91-5.8-1.45-2.44-2.18-5.12-2.18-8.02s.73-5.66,2.19-8.12c1.46-2.46,3.44-4.41,5.94-5.84,2.5-1.43,5.25-2.15,8.23-2.15s5.76.72,8.26,2.15c2.5,1.43,4.48,3.38,5.94,5.84,1.46,2.46,2.19,5.17,2.19,8.12s-.73,5.57-2.2,8.02-3.46,4.38-5.98,5.8c-2.52,1.42-5.28,2.14-8.28,2.14s-5.72-.71-8.21-2.14ZM348.94,1759.8c1.18-.68,2.11-1.61,2.8-2.79.69-1.18,1.03-2.49,1.03-3.93s-.34-2.78-1.03-3.97c-.69-1.19-1.62-2.12-2.8-2.8-1.18-.68-2.47-1.02-3.88-1.02s-2.73.34-3.91,1.02c-1.18.68-2.11,1.61-2.8,2.8-.69,1.19-1.03,2.51-1.03,3.97s.34,2.75,1.03,3.93c.69,1.18,1.62,2.11,2.8,2.79,1.18.68,2.48,1.02,3.91,1.02s2.7-.34,3.88-1.02Z"/>
    <path d="M408.87,1738.35c1.71,1.06,3.04,2.64,3.97,4.73.93,2.1,1.4,4.65,1.4,7.67v16.54c0,.68-.34,1.02-1.02,1.02h-6.62c-.68,0-1.02-.34-1.02-1.02v-16.24c0-1.9-.44-3.4-1.32-4.49s-2.15-1.64-3.79-1.64c-1.05,0-2,.27-2.84.8s-1.51,1.24-2.02,2.12c-.51.88-.81,1.84-.89,2.88v16.57c0,.68-.34,1.02-1.02,1.02h-6.62c-.68,0-1.02-.34-1.02-1.02v-16.24c0-1.9-.44-3.4-1.32-4.49s-2.15-1.64-3.79-1.64c-1.12,0-2.12.3-2.99.9-.87.6-1.56,1.4-2.05,2.38-.49.98-.74,2.03-.74,3.13v15.96c0,.68-.34,1.02-1.02,1.02h-6.62c-.68,0-1.02-.34-1.02-1.02v-28.76c0-.68.34-1.02,1.02-1.02h5.06c.29,0,.53.06.71.19s.34.33.46.6l.66,1.6c1.2-1.02,2.55-1.8,4.05-2.34s3.1-.81,4.81-.81c2,0,3.78.4,5.35,1.2,1.56.8,2.83,1.97,3.82,3.51,1.26-1.51,2.77-2.67,4.54-3.49,1.77-.81,3.71-1.22,5.82-1.22,2.32,0,4.34.53,6.06,1.59Z"/>
    <path d="M445.71,1768.32h-9.67c-.92,0-1.38-.46-1.38-1.38v-45.77c0-.92.46-1.38,1.38-1.38h18.69c3.5,0,6.57.7,9.21,2.11,2.64,1.4,4.67,3.34,6.11,5.82,1.44,2.48,2.16,5.27,2.16,8.38,0,3.36-.69,6.32-2.07,8.88-1.38,2.56-3.38,4.54-5.99,5.96-2.61,1.42-5.71,2.12-9.27,2.12h-7.77v13.89c0,.92-.46,1.38-1.38,1.38ZM456.87,1741.1c.9-.48,1.61-1.16,2.12-2.02.52-.86.78-1.83.78-2.88s-.26-1.91-.78-2.69c-.52-.78-1.22-1.39-2.11-1.83-.89-.44-1.88-.66-2.99-.66h-6.8v10.81h6.77c1.11,0,2.11-.24,3.01-.73Z"/>
    <path d="M501.25,1737.53h4.89c.68,0,1.02.34,1.02,1.02v28.76c0,.68-.34,1.02-1.02,1.02h-5.06c-.56,0-.95-.26-1.17-.79l-.64-1.53c-2.12,1.99-4.79,2.98-7.99,2.98-2.9,0-5.57-.72-8.02-2.15-2.44-1.43-4.38-3.38-5.8-5.83s-2.14-5.14-2.14-8.06.72-5.57,2.15-8c1.43-2.43,3.37-4.37,5.82-5.79,2.44-1.43,5.11-2.14,7.99-2.14,3.24,0,5.93,1.01,8.07,3.03l.74-1.73c.22-.53.61-.79,1.17-.79ZM495.29,1759.73c1.16-.65,2.08-1.56,2.75-2.72s1.01-2.47,1.01-3.93-.33-2.8-.99-3.98c-.66-1.18-1.57-2.11-2.72-2.79-1.15-.68-2.44-1.02-3.84-1.02s-2.69.33-3.83,1c-1.15.67-2.04,1.6-2.7,2.79-.65,1.19-.98,2.52-.98,4s.32,2.79.97,3.95c.65,1.15,1.53,2.06,2.66,2.71,1.13.65,2.41.98,3.83.98s2.69-.33,3.86-.98Z"/>
    <path d="M536.73,1738.83c.36.22.53.49.53.81,0,.19-.05.38-.15.58l-2.93,5.5c-.2.37-.47.56-.79.56-.2,0-.4-.06-.59-.18-1.22-.68-2.39-1.02-3.51-1.02s-2.09.31-3.07.92c-.98.61-1.77,1.51-2.38,2.71s-.92,2.63-.92,4.31v14.28c0,.68-.34,1.02-1.02,1.02h-6.62c-.68,0-1.02-.34-1.02-1.02v-28.76c0-.68.34-1.02,1.02-1.02h5.06c.56,0,.95.26,1.17.79l1.25,2.98c.8-1.32,1.87-2.37,3.21-3.13,1.34-.76,2.86-1.15,4.56-1.15,2.09,0,4.15.6,6.19,1.81Z"/>
    <path d="M541.34,1733.2v-5.98c0-.68.34-1.02,1.02-1.02h6.74c.68,0,1.02.34,1.02,1.02v5.98c0,.68-.34,1.02-1.02,1.02h-6.74c-.68,0-1.02-.34-1.02-1.02ZM549.03,1768.32h-6.62c-.68,0-1.02-.34-1.02-1.02v-28.76c0-.68.34-1.02,1.02-1.02h6.62c.68,0,1.02.34,1.02,1.02v28.76c0,.68-.34,1.02-1.02,1.02Z"/>
    <path d="M561.18,1767.88c-2.03-.81-3.92-1.99-5.69-3.55-.27-.22-.41-.47-.41-.74,0-.22.09-.45.28-.69l3.44-4.3c.24-.29.48-.43.74-.43.19,0,.42.09.69.28,1.24.93,2.46,1.66,3.68,2.16,1.21.51,2.44.76,3.68.76.85,0,1.53-.17,2.04-.5.51-.33.76-.8.76-1.41,0-.41-.15-.78-.45-1.12-.3-.34-.81-.68-1.54-1.03s-1.77-.75-3.1-1.21c-2.56-.87-4.68-2.04-6.34-3.54-1.66-1.49-2.49-3.55-2.49-6.16,0-1.66.41-3.21,1.23-4.63.82-1.42,2.08-2.57,3.77-3.45,1.69-.87,3.76-1.31,6.22-1.31,1.7,0,3.44.34,5.23,1.01,1.79.67,3.37,1.67,4.75,2.99.24.24.36.48.36.71,0,.2-.12.44-.36.71l-4.02,4.15c-.22.24-.46.36-.71.36-.22,0-.46-.1-.71-.31-.7-.56-1.46-1.02-2.3-1.39-.84-.37-1.68-.55-2.51-.55s-1.52.16-1.97.48-.67.76-.67,1.32c0,.39.17.74.5,1.06.33.31.86.63,1.59.94s1.75.68,3.05,1.11c2.8.9,4.96,2.1,6.49,3.61,1.53,1.51,2.29,3.55,2.29,6.13,0,1.68-.43,3.26-1.29,4.75-.86,1.48-2.1,2.68-3.74,3.6-1.64.92-3.58,1.38-5.82,1.38-2.41,0-4.63-.4-6.66-1.21Z"/>
    <path d="M597.74,1766.94v-45.77c0-.92.46-1.38,1.38-1.38h19.59c3.34,0,6.3.7,8.88,2.09,2.58,1.39,4.59,3.34,6.03,5.84,1.44,2.5,2.16,5.36,2.16,8.58s-.63,5.73-1.9,7.93c-1.27,2.2-3.04,3.99-5.32,5.37l8.57,17.1c.14.28.21.52.21.72,0,.28-.11.5-.33.66-.22.16-.51.24-.88.24h-11.05c-.76,0-1.3-.35-1.62-1.04l-6.77-14.47c-.35.02-.84.04-1.49.04h-5.01v14.09c0,.92-.46,1.38-1.38,1.38h-9.67c-.92,0-1.38-.46-1.38-1.38ZM620.44,1741.48c.85-.55,1.52-1.29,2-2.21.48-.92.73-1.9.73-2.94,0-1.82-.53-3.22-1.59-4.2-1.06-.98-2.36-1.47-3.9-1.47h-7.5v11.64h7.39c1.06,0,2.01-.28,2.87-.83Z"/>
    <path d="M648.55,1766.92c-2.44-1.44-4.35-3.39-5.71-5.83-1.37-2.44-2.05-5.11-2.05-7.99s.65-5.6,1.95-8.06c1.3-2.45,3.11-4.4,5.43-5.85,2.32-1.45,4.96-2.18,7.92-2.18,3.19,0,5.96.69,8.3,2.06,2.34,1.38,4.13,3.28,5.36,5.7,1.23,2.43,1.85,5.18,1.85,8.27,0,.68-.03,1.35-.1,2.01-.07.63-.42.94-1.07.94h-20.74c.56,1.7,1.52,3.02,2.88,3.97,1.36.95,2.9,1.43,4.63,1.43,1.1,0,2.1-.16,2.99-.47.89-.31,1.76-.77,2.61-1.36.22-.17.44-.25.66-.25.27,0,.52.15.74.46l3.13,4.45c.15.22.23.43.23.64,0,.29-.14.54-.41.76-1.41,1.1-2.98,1.96-4.72,2.56-1.74.6-3.6.9-5.59.9-3.07,0-5.83-.72-8.27-2.16ZM660.59,1745.77c-1.15-.9-2.56-1.35-4.23-1.35s-3.04.46-4.24,1.37-2.04,2.2-2.53,3.84h13.44c-.48-1.68-1.29-2.97-2.44-3.87Z"/>
    <path d="M682.37,1766.94c-2.42-1.43-4.31-3.37-5.68-5.82-1.37-2.44-2.05-5.12-2.05-8.02s.68-5.63,2.04-8.08c1.36-2.45,3.25-4.4,5.68-5.84,2.43-1.44,5.17-2.16,8.22-2.16,2,0,3.88.3,5.64.89,1.76.59,3.33,1.43,4.72,2.52.29.24.43.49.43.76,0,.2-.08.42-.23.66l-3.23,4.61c-.22.32-.48.48-.76.48-.19,0-.41-.08-.66-.25-.87-.59-1.73-1.04-2.6-1.35s-1.86-.46-2.98-.46c-1.37,0-2.65.36-3.82,1.07-1.17.71-2.1,1.69-2.8,2.94-.7,1.25-1.04,2.65-1.04,4.21s.35,2.91,1.06,4.15c.7,1.24,1.65,2.21,2.83,2.92,1.18.7,2.45,1.06,3.81,1.06,1.1,0,2.09-.15,2.96-.45s1.73-.74,2.58-1.34c.25-.17.48-.25.66-.25.29,0,.54.16.76.48l3.23,4.61c.17.24.25.47.25.69s-.1.42-.31.61c-1.41,1.12-3,1.99-4.79,2.6-1.78.61-3.71.92-5.78.92-3.02,0-5.74-.72-8.16-2.15Z"/>
    <path d="M711.1,1766.95c-2.49-1.43-4.45-3.36-5.91-5.8-1.45-2.44-2.18-5.12-2.18-8.02s.73-5.66,2.19-8.12c1.46-2.46,3.44-4.41,5.94-5.84,2.5-1.43,5.25-2.15,8.23-2.15s5.76.72,8.26,2.15c2.5,1.43,4.48,3.38,5.94,5.84,1.46,2.46,2.19,5.17,2.19,8.12s-.73,5.57-2.2,8.02-3.46,4.38-5.98,5.8c-2.52,1.42-5.28,2.14-8.28,2.14s-5.72-.71-8.21-2.14ZM723.29,1759.8c1.18-.68,2.11-1.61,2.8-2.79.69-1.18,1.03-2.49,1.03-3.93s-.34-2.78-1.03-3.97c-.69-1.19-1.62-2.12-2.8-2.8-1.18-.68-2.47-1.02-3.88-1.02s-2.73.34-3.91,1.02c-1.18.68-2.11,1.61-2.8,2.8-.69,1.19-1.03,2.51-1.03,3.97s.34,2.75,1.03,3.93c.69,1.18,1.62,2.11,2.8,2.79,1.18.68,2.48,1.02,3.91,1.02s2.7-.34,3.88-1.02Z"/>
    <path d="M763.32,1738.83c.36.22.53.49.53.81,0,.19-.05.38-.15.58l-2.93,5.5c-.2.37-.47.56-.79.56-.2,0-.4-.06-.59-.18-1.22-.68-2.39-1.02-3.51-1.02s-2.09.31-3.07.92c-.98.61-1.77,1.51-2.38,2.71s-.92,2.63-.92,4.31v14.28c0,.68-.34,1.02-1.02,1.02h-6.62c-.68,0-1.02-.34-1.02-1.02v-28.76c0-.68.34-1.02,1.02-1.02h5.06c.56,0,.95.26,1.17.79l1.25,2.98c.8-1.32,1.87-2.37,3.21-3.13,1.34-.76,2.86-1.15,4.56-1.15,2.09,0,4.15.6,6.19,1.81Z"/>
    <path d="M787.88,1728.49h6.62c.68,0,1.02.34,1.02,1.02v37.8c0,.68-.34,1.02-1.02,1.02h-5.06c-.56,0-.95-.26-1.17-.79l-.64-1.53c-2.12,1.99-4.79,2.98-7.99,2.98-2.9,0-5.57-.72-8.02-2.15-2.44-1.43-4.38-3.38-5.8-5.83s-2.14-5.14-2.14-8.06.72-5.57,2.15-8c1.43-2.43,3.37-4.37,5.82-5.79,2.44-1.43,5.11-2.14,7.99-2.14s5.24.77,7.23,2.32v-9.82c0-.68.34-1.02,1.02-1.02ZM783.64,1759.73c1.16-.65,2.08-1.56,2.75-2.72s1.01-2.47,1.01-3.93-.33-2.8-.99-3.98c-.66-1.18-1.57-2.11-2.72-2.79-1.15-.68-2.44-1.02-3.84-1.02s-2.69.33-3.83,1c-1.15.67-2.04,1.6-2.7,2.79-.65,1.19-.98,2.52-.98,4s.32,2.79.97,3.95c.65,1.15,1.53,2.06,2.66,2.71,1.13.65,2.41.98,3.83.98s2.69-.33,3.86-.98Z"/>
    <path d="M806.57,1767.88c-2.03-.81-3.92-1.99-5.69-3.55-.27-.22-.41-.47-.41-.74,0-.22.09-.45.28-.69l3.44-4.3c.24-.29.48-.43.74-.43.19,0,.42.09.69.28,1.24.93,2.46,1.66,3.68,2.16,1.21.51,2.44.76,3.68.76.85,0,1.53-.17,2.04-.5.51-.33.76-.8.76-1.41,0-.41-.15-.78-.45-1.12-.3-.34-.81-.68-1.54-1.03s-1.77-.75-3.1-1.21c-2.56-.87-4.68-2.04-6.34-3.54-1.66-1.49-2.49-3.55-2.49-6.16,0-1.66.41-3.21,1.23-4.63.82-1.42,2.08-2.57,3.77-3.45,1.69-.87,3.76-1.31,6.22-1.31,1.7,0,3.44.34,5.23,1.01,1.79.67,3.37,1.67,4.75,2.99.24.24.36.48.36.71,0,.2-.12.44-.36.71l-4.02,4.15c-.22.24-.46.36-.71.36-.22,0-.46-.1-.71-.31-.7-.56-1.46-1.02-2.3-1.39-.84-.37-1.68-.55-2.51-.55s-1.52.16-1.97.48-.67.76-.67,1.32c0,.39.17.74.5,1.06.33.31.86.63,1.59.94s1.75.68,3.05,1.11c2.8.9,4.96,2.1,6.49,3.61,1.53,1.51,2.29,3.55,2.29,6.13,0,1.68-.43,3.26-1.29,4.75-.86,1.48-2.1,2.68-3.74,3.6-1.64.92-3.58,1.38-5.82,1.38-2.41,0-4.63-.4-6.66-1.21Z"/>
  </g>
  <path d="M401.58,1344.82v302.53h-71.17v-302.53h-108.2v-66.44h179.34v55.94"/>
  <path class="cls-2" d="M496.27,1647.34h-71.17v-368.97h219.03c25.91,0,48.58,5.17,68.01,15.49,19.43,10.33,34.44,24.69,45.04,43.07,10.59,18.38,15.89,39.3,15.89,62.76,0,24.86-5.12,46.74-15.36,65.65-10.25,18.91-25.04,33.53-44.38,43.86-19.35,10.33-42.24,15.49-68.67,15.49h-148.38v122.64ZM671.7,1452.36c9.45-4.99,16.8-11.99,22.06-21.01,5.25-9.02,7.88-19.39,7.88-31.12s-2.63-21.4-7.88-30.07c-5.25-8.67-12.61-15.36-22.06-20.09-9.46-4.73-20.22-7.09-32.3-7.09h-143.13v116.86h142.87c12.25,0,23.11-2.5,32.57-7.48Z"/>
  <path d="M590.28,1597.17v50.17h-71.17v-99.38c5.45-.64,71.17,0,71.17,0v49.21Z"/>
  <path d="M777.78,1647.34h-79.07l-51.64-99.66c27.12,0,57.63-7.98,72.91-16,0,0,41.19,81.61,41.19,81.61l16.62,34.05Z"/>
  <g>
    <path class="cls-1" d="M1199.71,1768.32h-9.67c-.92,0-1.38-.46-1.38-1.38v-35.58h-11.64c-.92,0-1.38-.46-1.38-1.38v-8.81c0-.92.46-1.38,1.38-1.38h35.75c.92,0,1.38.46,1.38,1.38v8.81c0,.92-.46,1.38-1.38,1.38h-11.67v35.58c0,.92-.46,1.38-1.38,1.38Z"/>
    <path class="cls-1" d="M1224.65,1766.92c-2.44-1.44-4.35-3.39-5.71-5.83-1.37-2.44-2.05-5.11-2.05-7.99s.65-5.6,1.95-8.06c1.3-2.45,3.11-4.4,5.43-5.85,2.32-1.45,4.96-2.18,7.92-2.18,3.19,0,5.96.69,8.3,2.06,2.34,1.38,4.13,3.28,5.36,5.7,1.23,2.43,1.84,5.18,1.84,8.27,0,.68-.03,1.35-.1,2.01-.07.63-.42.94-1.07.94h-20.74c.56,1.7,1.52,3.02,2.88,3.97,1.36.95,2.9,1.43,4.63,1.43,1.1,0,2.1-.16,2.99-.47.89-.31,1.76-.77,2.61-1.36.22-.17.44-.25.66-.25.27,0,.52.15.74.46l3.13,4.45c.15.22.23.43.23.64,0,.29-.14.54-.41.76-1.41,1.1-2.98,1.96-4.72,2.56-1.74.6-3.6.9-5.59.9-3.07,0-5.83-.72-8.27-2.16ZM1236.69,1745.77c-1.15-.9-2.56-1.35-4.23-1.35s-3.04.46-4.24,1.37-2.04,2.2-2.53,3.84h13.44c-.48-1.68-1.29-2.97-2.44-3.87Z"/>
    <path class="cls-1" d="M1260.33,1768.32h-6.54c-.68,0-1.02-.34-1.02-1.02v-37.75c0-.68.34-1.02,1.02-1.02h6.54c.68,0,1.02.34,1.02,1.02v37.75c0,.68-.34,1.02-1.02,1.02Z"/>
    <path class="cls-1" d="M1274.21,1766.92c-2.44-1.44-4.35-3.39-5.71-5.83-1.37-2.44-2.05-5.11-2.05-7.99s.65-5.6,1.95-8.06c1.3-2.45,3.11-4.4,5.43-5.85,2.32-1.45,4.96-2.18,7.92-2.18,3.19,0,5.96.69,8.3,2.06,2.34,1.38,4.13,3.28,5.36,5.7,1.23,2.43,1.84,5.18,1.84,8.27,0,.68-.03,1.35-.1,2.01-.07.63-.42.94-1.07.94h-20.74c.56,1.7,1.52,3.02,2.88,3.97,1.36.95,2.9,1.43,4.63,1.43,1.1,0,2.1-.16,2.99-.47.89-.31,1.76-.77,2.61-1.36.22-.17.44-.25.66-.25.27,0,.52.15.74.46l3.13,4.45c.15.22.23.43.23.64,0,.29-.14.54-.41.76-1.41,1.1-2.98,1.96-4.72,2.56-1.74.6-3.6.9-5.59.9-3.07,0-5.83-.72-8.27-2.16ZM1286.24,1745.77c-1.15-.9-2.56-1.35-4.23-1.35s-3.04.46-4.24,1.37-2.04,2.2-2.53,3.84h13.44c-.48-1.68-1.29-2.97-2.44-3.87Z"/>
    <path class="cls-1" d="M1308.02,1766.94c-2.42-1.43-4.31-3.37-5.68-5.82-1.37-2.44-2.05-5.12-2.05-8.02s.68-5.63,2.04-8.08c1.36-2.45,3.25-4.4,5.68-5.84s5.17-2.16,8.22-2.16c2,0,3.88.3,5.64.89,1.76.59,3.33,1.43,4.72,2.52.29.24.43.49.43.76,0,.2-.08.42-.23.66l-3.23,4.61c-.22.32-.48.48-.76.48-.19,0-.41-.08-.66-.25-.87-.59-1.73-1.04-2.6-1.35-.87-.31-1.86-.46-2.98-.46-1.37,0-2.65.36-3.82,1.07-1.17.71-2.1,1.69-2.8,2.94-.7,1.25-1.04,2.65-1.04,4.21s.35,2.91,1.06,4.15c.7,1.24,1.65,2.21,2.83,2.92,1.18.7,2.45,1.06,3.8,1.06,1.1,0,2.09-.15,2.97-.45.87-.3,1.73-.74,2.58-1.34.25-.17.47-.25.66-.25.29,0,.54.16.76.48l3.23,4.61c.17.24.25.47.25.69s-.1.42-.31.61c-1.41,1.12-3,1.99-4.78,2.6-1.78.61-3.71.92-5.78.92-3.02,0-5.74-.72-8.16-2.15Z"/>
    <path class="cls-1" d="M1336.75,1766.95c-2.49-1.43-4.45-3.36-5.91-5.8-1.45-2.44-2.18-5.12-2.18-8.02s.73-5.66,2.19-8.12c1.46-2.46,3.44-4.41,5.94-5.84,2.5-1.43,5.25-2.15,8.23-2.15s5.76.72,8.26,2.15c2.5,1.43,4.48,3.38,5.94,5.84,1.46,2.46,2.19,5.17,2.19,8.12s-.73,5.57-2.2,8.02c-1.47,2.44-3.46,4.38-5.98,5.8-2.52,1.42-5.28,2.14-8.29,2.14s-5.72-.71-8.21-2.14ZM1348.95,1759.8c1.18-.68,2.11-1.61,2.8-2.79s1.03-2.49,1.03-3.93-.34-2.78-1.03-3.97c-.69-1.19-1.62-2.12-2.8-2.8-1.18-.68-2.47-1.02-3.88-1.02s-2.73.34-3.91,1.02c-1.18.68-2.11,1.61-2.8,2.8-.69,1.19-1.03,2.51-1.03,3.97s.34,2.75,1.03,3.93,1.62,2.11,2.8,2.79c1.18.68,2.48,1.02,3.91,1.02s2.7-.34,3.88-1.02Z"/>
    <path class="cls-1" d="M1408.87,1738.35c1.71,1.06,3.04,2.64,3.97,4.73.93,2.1,1.4,4.65,1.4,7.67v16.54c0,.68-.34,1.02-1.02,1.02h-6.62c-.68,0-1.02-.34-1.02-1.02v-16.24c0-1.9-.44-3.4-1.32-4.49-.88-1.09-2.15-1.64-3.79-1.64-1.05,0-2,.27-2.84.8s-1.51,1.24-2.02,2.12c-.51.88-.81,1.84-.89,2.88v16.57c0,.68-.34,1.02-1.02,1.02h-6.62c-.68,0-1.02-.34-1.02-1.02v-16.24c0-1.9-.44-3.4-1.32-4.49-.88-1.09-2.15-1.64-3.79-1.64-1.12,0-2.12.3-2.99.9-.87.6-1.56,1.4-2.05,2.38-.49.98-.74,2.03-.74,3.13v15.96c0,.68-.34,1.02-1.02,1.02h-6.62c-.68,0-1.02-.34-1.02-1.02v-28.76c0-.68.34-1.02,1.02-1.02h5.07c.29,0,.53.06.71.19.19.13.34.33.46.6l.66,1.6c1.2-1.02,2.55-1.8,4.05-2.34,1.49-.54,3.1-.81,4.81-.81,2,0,3.78.4,5.34,1.2,1.56.8,2.83,1.97,3.82,3.51,1.26-1.51,2.77-2.67,4.54-3.49,1.77-.81,3.71-1.22,5.82-1.22,2.32,0,4.34.53,6.06,1.59Z"/>
    <path class="cls-1" d="M1445.71,1768.32h-9.67c-.92,0-1.38-.46-1.38-1.38v-45.77c0-.92.46-1.38,1.38-1.38h18.69c3.5,0,6.57.7,9.21,2.11s4.67,3.34,6.11,5.82,2.16,5.27,2.16,8.38c0,3.36-.69,6.32-2.07,8.88-1.38,2.56-3.38,4.54-5.99,5.96-2.61,1.42-5.71,2.12-9.28,2.12h-7.77v13.89c0,.92-.46,1.38-1.38,1.38ZM1456.87,1741.1c.9-.48,1.61-1.16,2.12-2.02.52-.86.78-1.83.78-2.88s-.26-1.91-.78-2.69c-.52-.78-1.22-1.39-2.11-1.83-.89-.44-1.88-.66-2.99-.66h-6.8v10.81h6.77c1.1,0,2.11-.24,3-.73Z"/>
    <path class="cls-1" d="M1501.25,1737.53h4.89c.68,0,1.02.34,1.02,1.02v28.76c0,.68-.34,1.02-1.02,1.02h-5.06c-.56,0-.95-.26-1.17-.79l-.64-1.53c-2.12,1.99-4.79,2.98-7.99,2.98-2.9,0-5.57-.72-8.02-2.15-2.44-1.43-4.38-3.38-5.8-5.83-1.42-2.45-2.14-5.14-2.14-8.06s.72-5.57,2.15-8,3.37-4.37,5.82-5.79c2.44-1.43,5.11-2.14,7.99-2.14,3.24,0,5.93,1.01,8.07,3.03l.74-1.73c.22-.53.61-.79,1.17-.79ZM1495.29,1759.73c1.16-.65,2.08-1.56,2.75-2.72s1.01-2.47,1.01-3.93-.33-2.8-.99-3.98c-.66-1.18-1.57-2.11-2.72-2.79-1.15-.68-2.43-1.02-3.84-1.02s-2.69.33-3.83,1c-1.14.67-2.04,1.6-2.7,2.79-.65,1.19-.98,2.52-.98,4s.32,2.79.97,3.95c.64,1.15,1.53,2.06,2.66,2.71,1.13.65,2.41.98,3.83.98s2.69-.33,3.86-.98Z"/>
    <path class="cls-1" d="M1536.74,1738.83c.36.22.53.49.53.81,0,.19-.05.38-.15.58l-2.93,5.5c-.2.37-.47.56-.79.56-.2,0-.4-.06-.58-.18-1.22-.68-2.39-1.02-3.51-1.02s-2.09.31-3.07.92c-.98.61-1.77,1.51-2.38,2.71-.61,1.2-.92,2.63-.92,4.31v14.28c0,.68-.34,1.02-1.02,1.02h-6.62c-.68,0-1.02-.34-1.02-1.02v-28.76c0-.68.34-1.02,1.02-1.02h5.07c.56,0,.95.26,1.17.79l1.25,2.98c.8-1.32,1.87-2.37,3.21-3.13,1.34-.76,2.86-1.15,4.56-1.15,2.09,0,4.15.6,6.19,1.81Z"/>
    <path class="cls-1" d="M1541.34,1733.2v-5.98c0-.68.34-1.02,1.02-1.02h6.75c.68,0,1.02.34,1.02,1.02v5.98c0,.68-.34,1.02-1.02,1.02h-6.75c-.68,0-1.02-.34-1.02-1.02ZM1549.03,1768.32h-6.62c-.68,0-1.02-.34-1.02-1.02v-28.76c0-.68.34-1.02,1.02-1.02h6.62c.68,0,1.02.34,1.02,1.02v28.76c0,.68-.34,1.02-1.02,1.02Z"/>
    <path class="cls-1" d="M1561.18,1767.88c-2.03-.81-3.92-1.99-5.69-3.55-.27-.22-.41-.47-.41-.74,0-.22.09-.45.28-.69l3.44-4.3c.24-.29.48-.43.74-.43.19,0,.42.09.69.28,1.24.93,2.46,1.66,3.68,2.16s2.44.76,3.68.76c.85,0,1.53-.17,2.04-.5.51-.33.76-.8.76-1.41,0-.41-.15-.78-.45-1.12-.3-.34-.81-.68-1.54-1.03-.73-.35-1.77-.75-3.11-1.21-2.56-.87-4.67-2.04-6.34-3.54s-2.49-3.55-2.49-6.16c0-1.66.41-3.21,1.23-4.63.82-1.42,2.08-2.57,3.77-3.45,1.69-.87,3.76-1.31,6.22-1.31,1.7,0,3.44.34,5.23,1.01,1.79.67,3.37,1.67,4.75,2.99.24.24.36.48.36.71,0,.2-.12.44-.36.71l-4.02,4.15c-.22.24-.46.36-.71.36-.22,0-.46-.1-.71-.31-.7-.56-1.46-1.02-2.3-1.39s-1.68-.55-2.51-.55-1.52.16-1.97.48-.67.76-.67,1.32c0,.39.17.74.5,1.06.33.31.86.63,1.59.94.73.31,1.75.68,3.05,1.11,2.8.9,4.96,2.1,6.49,3.61,1.53,1.51,2.29,3.55,2.29,6.13,0,1.68-.43,3.26-1.29,4.75-.86,1.48-2.1,2.68-3.74,3.6-1.64.92-3.58,1.38-5.82,1.38-2.41,0-4.63-.4-6.66-1.21Z"/>
    <path class="cls-1" d="M1597.74,1766.94v-45.77c0-.92.46-1.38,1.38-1.38h19.59c3.34,0,6.3.7,8.88,2.09,2.58,1.39,4.59,3.34,6.03,5.84s2.16,5.36,2.16,8.58-.63,5.73-1.9,7.93c-1.27,2.2-3.04,3.99-5.32,5.37l8.57,17.1c.14.28.21.52.21.72,0,.28-.11.5-.33.66-.22.16-.51.24-.88.24h-11.05c-.76,0-1.3-.35-1.62-1.04l-6.77-14.47c-.35.02-.84.04-1.49.04h-5.01v14.09c0,.92-.46,1.38-1.38,1.38h-9.67c-.92,0-1.38-.46-1.38-1.38ZM1620.44,1741.48c.85-.55,1.52-1.29,2-2.21.48-.92.72-1.9.72-2.94,0-1.82-.53-3.22-1.59-4.2-1.06-.98-2.36-1.47-3.9-1.47h-7.5v11.64h7.39c1.06,0,2.01-.28,2.87-.83Z"/>
    <path class="cls-1" d="M1648.55,1766.92c-2.44-1.44-4.35-3.39-5.71-5.83-1.37-2.44-2.05-5.11-2.05-7.99s.65-5.6,1.95-8.06c1.3-2.45,3.11-4.4,5.43-5.85,2.32-1.45,4.96-2.18,7.92-2.18,3.19,0,5.96.69,8.3,2.06,2.34,1.38,4.13,3.28,5.36,5.7,1.23,2.43,1.84,5.18,1.84,8.27,0,.68-.03,1.35-.1,2.01-.07.63-.42.94-1.07.94h-20.74c.56,1.7,1.52,3.02,2.88,3.97,1.36.95,2.9,1.43,4.63,1.43,1.1,0,2.1-.16,2.99-.47.89-.31,1.76-.77,2.61-1.36.22-.17.44-.25.66-.25.27,0,.52.15.74.46l3.13,4.45c.15.22.23.43.23.64,0,.29-.14.54-.41.76-1.41,1.1-2.98,1.96-4.72,2.56-1.74.6-3.6.9-5.59.9-3.07,0-5.83-.72-8.27-2.16ZM1660.59,1745.77c-1.15-.9-2.56-1.35-4.23-1.35s-3.04.46-4.24,1.37-2.04,2.2-2.53,3.84h13.44c-.48-1.68-1.29-2.97-2.44-3.87Z"/>
    <path class="cls-1" d="M1682.37,1766.94c-2.42-1.43-4.31-3.37-5.68-5.82-1.37-2.44-2.05-5.12-2.05-8.02s.68-5.63,2.04-8.08c1.36-2.45,3.25-4.4,5.68-5.84s5.17-2.16,8.22-2.16c2,0,3.88.3,5.64.89,1.76.59,3.33,1.43,4.72,2.52.29.24.43.49.43.76,0,.2-.08.42-.23.66l-3.23,4.61c-.22.32-.48.48-.76.48-.19,0-.41-.08-.66-.25-.87-.59-1.73-1.04-2.6-1.35-.87-.31-1.86-.46-2.98-.46-1.37,0-2.65.36-3.82,1.07-1.17.71-2.1,1.69-2.8,2.94-.7,1.25-1.04,2.65-1.04,4.21s.35,2.91,1.06,4.15c.7,1.24,1.65,2.21,2.83,2.92,1.18.7,2.45,1.06,3.8,1.06,1.1,0,2.09-.15,2.97-.45.87-.3,1.73-.74,2.58-1.34.25-.17.47-.25.66-.25.29,0,.54.16.76.48l3.23,4.61c.17.24.25.47.25.69s-.1.42-.31.61c-1.41,1.12-3,1.99-4.78,2.6-1.78.61-3.71.92-5.78.92-3.02,0-5.74-.72-8.16-2.15Z"/>
    <path class="cls-1" d="M1711.1,1766.95c-2.49-1.43-4.45-3.36-5.91-5.8-1.45-2.44-2.18-5.12-2.18-8.02s.73-5.66,2.19-8.12c1.46-2.46,3.44-4.41,5.94-5.84,2.5-1.43,5.25-2.15,8.23-2.15s5.76.72,8.26,2.15c2.5,1.43,4.48,3.38,5.94,5.84,1.46,2.46,2.19,5.17,2.19,8.12s-.73,5.57-2.2,8.02c-1.47,2.44-3.46,4.38-5.98,5.8-2.52,1.42-5.28,2.14-8.29,2.14s-5.72-.71-8.21-2.14ZM1723.29,1759.8c1.18-.68,2.11-1.61,2.8-2.79s1.03-2.49,1.03-3.93-.34-2.78-1.03-3.97c-.69-1.19-1.62-2.12-2.8-2.8-1.18-.68-2.47-1.02-3.88-1.02s-2.73.34-3.91,1.02c-1.18.68-2.11,1.61-2.8,2.8-.69,1.19-1.03,2.51-1.03,3.97s.34,2.75,1.03,3.93,1.62,2.11,2.8,2.79c1.18.68,2.48,1.02,3.91,1.02s2.7-.34,3.88-1.02Z"/>
    <path class="cls-1" d="M1763.32,1738.83c.36.22.53.49.53.81,0,.19-.05.38-.15.58l-2.93,5.5c-.2.37-.47.56-.79.56-.2,0-.4-.06-.58-.18-1.22-.68-2.39-1.02-3.51-1.02s-2.09.31-3.07.92c-.98.61-1.77,1.51-2.38,2.71-.61,1.2-.92,2.63-.92,4.31v14.28c0,.68-.34,1.02-1.02,1.02h-6.62c-.68,0-1.02-.34-1.02-1.02v-28.76c0-.68.34-1.02,1.02-1.02h5.07c.56,0,.95.26,1.17.79l1.25,2.98c.8-1.32,1.87-2.37,3.21-3.13,1.34-.76,2.86-1.15,4.56-1.15,2.09,0,4.15.6,6.19,1.81Z"/>
    <path class="cls-1" d="M1787.88,1728.49h6.62c.68,0,1.02.34,1.02,1.02v37.8c0,.68-.34,1.02-1.02,1.02h-5.06c-.56,0-.95-.26-1.17-.79l-.64-1.53c-2.12,1.99-4.79,2.98-7.99,2.98-2.9,0-5.57-.72-8.02-2.15-2.44-1.43-4.38-3.38-5.8-5.83-1.42-2.45-2.14-5.14-2.14-8.06s.72-5.57,2.15-8,3.37-4.37,5.82-5.79c2.44-1.43,5.11-2.14,7.99-2.14s5.24.77,7.23,2.32v-9.82c0-.68.34-1.02,1.02-1.02ZM1783.64,1759.73c1.16-.65,2.08-1.56,2.75-2.72s1.01-2.47,1.01-3.93-.33-2.8-.99-3.98c-.66-1.18-1.57-2.11-2.72-2.79-1.15-.68-2.43-1.02-3.84-1.02s-2.69.33-3.83,1c-1.14.67-2.04,1.6-2.7,2.79-.65,1.19-.98,2.52-.98,4s.32,2.79.97,3.95c.64,1.15,1.53,2.06,2.66,2.71,1.13.65,2.41.98,3.83.98s2.69-.33,3.86-.98Z"/>
    <path class="cls-1" d="M1806.57,1767.88c-2.03-.81-3.92-1.99-5.69-3.55-.27-.22-.41-.47-.41-.74,0-.22.09-.45.28-.69l3.44-4.3c.24-.29.48-.43.74-.43.19,0,.42.09.69.28,1.24.93,2.46,1.66,3.68,2.16s2.44.76,3.68.76c.85,0,1.53-.17,2.04-.5.51-.33.76-.8.76-1.41,0-.41-.15-.78-.45-1.12-.3-.34-.81-.68-1.54-1.03-.73-.35-1.77-.75-3.11-1.21-2.56-.87-4.67-2.04-6.34-3.54s-2.49-3.55-2.49-6.16c0-1.66.41-3.21,1.23-4.63.82-1.42,2.08-2.57,3.77-3.45,1.69-.87,3.76-1.31,6.22-1.31,1.7,0,3.44.34,5.23,1.01,1.79.67,3.37,1.67,4.75,2.99.24.24.36.48.36.71,0,.2-.12.44-.36.71l-4.02,4.15c-.22.24-.46.36-.71.36-.22,0-.46-.1-.71-.31-.7-.56-1.46-1.02-2.3-1.39s-1.68-.55-2.51-.55-1.52.16-1.97.48-.67.76-.67,1.32c0,.39.17.74.5,1.06.33.31.86.63,1.59.94.73.31,1.75.68,3.05,1.11,2.8.9,4.96,2.1,6.49,3.61,1.53,1.51,2.29,3.55,2.29,6.13,0,1.68-.43,3.26-1.29,4.75-.86,1.48-2.1,2.68-3.74,3.6-1.64.92-3.58,1.38-5.82,1.38-2.41,0-4.63-.4-6.66-1.21Z"/>
  </g>
  <g>
    <path class="cls-1" d="M1401.58,1344.82v302.53h-71.17v-302.53h-108.2v-66.44h179.34v55.94"/>
    <path class="cls-2" d="M1496.27,1647.34h-71.17v-368.97h219.03c25.91,0,48.58,5.17,68.01,15.49,19.43,10.33,34.44,24.69,45.04,43.07,10.59,18.38,15.89,39.3,15.89,62.76,0,24.86-5.12,46.74-15.36,65.65-10.25,18.91-25.04,33.53-44.38,43.86-19.35,10.33-42.24,15.49-68.67,15.49h-148.38v122.64ZM1671.7,1452.36c9.45-4.99,16.8-11.99,22.06-21.01,5.25-9.02,7.88-19.39,7.88-31.12s-2.63-21.4-7.88-30.07c-5.25-8.67-12.61-15.36-22.06-20.09-9.46-4.73-20.22-7.09-32.3-7.09h-143.13v116.86h142.87c12.25,0,23.11-2.5,32.57-7.48Z"/>
    <path class="cls-1" d="M1590.28,1597.17v50.17h-71.17v-99.38c5.45-.64,71.17,0,71.17,0v49.21Z"/>
    <path class="cls-1" d="M1777.78,1647.34h-79.07l-51.64-99.66c27.12,0,57.63-7.98,72.91-16,0,0,41.19,81.61,41.19,81.61l16.62,34.05Z"/>
  </g>
  <rect class="cls-1" x="2000" y="0" width="1000" height="1000"/>
  <rect x="3000" y="0" width="1000" height="1000"/>
  <path d="M2401.58,381.96v302.53h-71.17v-302.53h-108.2v-66.44h179.34v55.94"/>
  <path class="cls-2" d="M2496.27,684.48h-71.17v-368.97h219.03c25.91,0,48.58,5.17,68.01,15.49,19.43,10.33,34.44,24.69,45.04,43.07,10.59,18.38,15.89,39.3,15.89,62.76,0,24.86-5.12,46.74-15.36,65.65-10.25,18.91-25.04,33.53-44.38,43.86-19.35,10.33-42.24,15.49-68.67,15.49h-148.38v122.64ZM2671.7,489.5c9.45-4.99,16.8-11.99,22.06-21.01,5.25-9.02,7.88-19.39,7.88-31.12s-2.63-21.4-7.88-30.07c-5.25-8.67-12.61-15.36-22.06-20.09-9.46-4.73-20.22-7.09-32.3-7.09h-143.13v116.86h142.87c12.25,0,23.11-2.5,32.57-7.48Z"/>
  <path d="M2590.28,634.31v50.17h-71.17v-99.38c5.45-.64,71.17,0,71.17,0v49.21Z"/>
  <path d="M2777.78,684.48h-79.07l-51.64-99.66c27.12,0,57.63-7.98,72.91-16,0,0,41.19,81.61,41.19,81.61l16.62,34.05Z"/>
  <g>
    <path class="cls-1" d="M3401.58,381.96v302.53h-71.17v-302.53h-108.2v-66.44h179.34v55.94"/>
    <path class="cls-2" d="M3496.27,684.48h-71.17v-368.97h219.03c25.91,0,48.58,5.17,68.01,15.49,19.43,10.33,34.44,24.69,45.04,43.07,10.59,18.38,15.89,39.3,15.89,62.76,0,24.86-5.12,46.74-15.36,65.65-10.25,18.91-25.04,33.53-44.38,43.86-19.35,10.33-42.24,15.49-68.67,15.49h-148.38v122.64ZM3671.7,489.5c9.45-4.99,16.8-11.99,22.06-21.01,5.25-9.02,7.88-19.39,7.88-31.12s-2.63-21.4-7.88-30.07c-5.25-8.67-12.61-15.36-22.06-20.09-9.46-4.73-20.22-7.09-32.3-7.09h-143.13v116.86h142.87c12.25,0,23.11-2.5,32.57-7.48Z"/>
    <path class="cls-1" d="M3590.28,634.31v50.17h-71.17v-99.38c5.45-.64,71.17,0,71.17,0v49.21Z"/>
    <path class="cls-1" d="M3777.78,684.48h-79.07l-51.64-99.66c27.12,0,57.63-7.98,72.91-16,0,0,41.19,81.61,41.19,81.61l16.62,34.05Z"/>
  </g>
  <path class="cls-1" d="M2500,1000h0c275.96,0,500,224.04,500,500h0c0,275.96-224.04,500-500,500h0c-275.96,0-500-224.04-500-500h0c0-275.96,224.04-500,500-500Z"/>
  <path d="M3500,1000h0c275.96,0,500,224.04,500,500h0c0,275.96-224.04,500-500,500h0c-275.96,0-500-224.04-500-500h0c0-275.96,224.04-500,500-500Z"/>
  <path d="M2401.58,1381.96v302.53h-71.17v-302.53h-108.2v-66.44h179.34v55.94"/>
  <path class="cls-2" d="M2496.27,1684.48h-71.17v-368.97h219.03c25.91,0,48.58,5.17,68.01,15.49,19.43,10.33,34.44,24.69,45.04,43.07,10.59,18.38,15.89,39.3,15.89,62.76,0,24.86-5.12,46.74-15.36,65.65-10.25,18.91-25.04,33.53-44.38,43.86-19.35,10.33-42.24,15.49-68.67,15.49h-148.38v122.64ZM2671.7,1489.5c9.45-4.99,16.8-11.99,22.06-21.01,5.25-9.02,7.88-19.39,7.88-31.12s-2.63-21.4-7.88-30.07c-5.25-8.67-12.61-15.36-22.06-20.09-9.46-4.73-20.22-7.09-32.3-7.09h-143.13v116.86h142.87c12.25,0,23.11-2.5,32.57-7.48Z"/>
  <path d="M2590.28,1634.31v50.17h-71.17v-99.38c5.45-.64,71.17,0,71.17,0v49.21Z"/>
  <path d="M2777.78,1684.48h-79.07l-51.64-99.66c27.12,0,57.63-7.98,72.91-16,0,0,41.19,81.61,41.19,81.61l16.62,34.05Z"/>
  <g>
    <path class="cls-1" d="M3401.58,1381.96v302.53h-71.17v-302.53h-108.2v-66.44h179.34v55.94"/>
    <path class="cls-2" d="M3496.27,1684.48h-71.17v-368.97h219.03c25.91,0,48.58,5.17,68.01,15.49,19.43,10.33,34.44,24.69,45.04,43.07,10.59,18.38,15.89,39.3,15.89,62.76,0,24.86-5.12,46.74-15.36,65.65-10.25,18.91-25.04,33.53-44.38,43.86-19.35,10.33-42.24,15.49-68.67,15.49h-148.38v122.64ZM3671.7,1489.5c9.45-4.99,16.8-11.99,22.06-21.01,5.25-9.02,7.88-19.39,7.88-31.12s-2.63-21.4-7.88-30.07c-5.25-8.67-12.61-15.36-22.06-20.09-9.46-4.73-20.22-7.09-32.3-7.09h-143.13v116.86h142.87c12.25,0,23.11-2.5,32.57-7.48Z"/>
    <path class="cls-1" d="M3590.28,1634.31v50.17h-71.17v-99.38c5.45-.64,71.17,0,71.17,0v49.21Z"/>
    <path class="cls-1" d="M3777.78,1684.48h-79.07l-51.64-99.66c27.12,0,57.63-7.98,72.91-16,0,0,41.19,81.61,41.19,81.61l16.62,34.05Z"/>
  </g>
</svg>